<svg width="77" height="83" viewBox="0 0 77 83" fill="none" xmlns="http://www.w3.org/2000/svg">
<path fill-rule="evenodd" clip-rule="evenodd" d="M38.5262 9.76471C20.9951 9.76471 6.82281 24.5338 6.82281 42.8051C6.82281 57.4104 15.9035 69.7734 28.5007 74.1491C30.0757 74.478 30.6526 73.4381 30.6526 72.5634C30.6526 71.7974 30.6007 69.1719 30.6007 66.4363C21.7816 68.4059 19.9451 62.4976 19.9451 62.4976C18.5278 58.6684 16.4278 57.6843 16.4278 57.6843C13.5413 55.6602 16.6381 55.6602 16.6381 55.6602C19.8399 55.8791 21.5201 59.0517 21.5201 59.0517C24.354 64.084 28.9206 62.6621 30.7578 61.7867C31.0199 59.6532 31.8603 58.1763 32.7526 57.356C25.7187 56.59 18.3182 53.7456 18.3182 41.0543C18.3182 37.4439 19.5771 34.4901 21.572 32.1929C21.2572 31.3725 20.1547 27.9803 21.8874 23.4402C21.8874 23.4402 24.5642 22.5648 30.6001 26.8317C33.1842 26.1085 35.8492 25.7405 38.5262 25.7374C41.2031 25.7374 43.9319 26.1208 46.4518 26.8317C52.4882 22.5648 55.1651 23.4402 55.1651 23.4402C56.8978 27.9803 55.7946 31.3725 55.4799 32.1929C57.5273 34.4901 58.7343 37.4439 58.7343 41.0543C58.7343 53.7456 51.3338 56.535 44.2473 57.356C45.4024 58.3952 46.3992 60.3642 46.3992 63.4825C46.3992 67.9132 46.3473 71.4692 46.3473 72.5627C46.3473 73.4381 46.9249 74.478 48.4992 74.1497C61.0965 69.7727 70.1771 57.4104 70.1771 42.8051C70.229 24.5338 56.0049 9.76471 38.5262 9.76471Z" fill="white"/>
</svg>
