<svg width="76" height="82" viewBox="0 0 76 82" fill="none" xmlns="http://www.w3.org/2000/svg">
<g clip-path="url(#clip0_62_11)">
<path fill-rule="evenodd" clip-rule="evenodd" d="M17.1878 40.5731C28.2665 35.3819 35.6418 31.9326 39.3453 30.2591C49.8859 25.5119 52.1016 24.6922 53.526 24.6581C53.8426 24.6581 54.5389 24.7264 55.0137 25.1362C55.3936 25.4777 55.4885 25.9217 55.5518 26.2632C55.6152 26.6048 55.6785 27.322 55.6152 27.8684C55.0454 34.3574 52.5764 50.1016 51.3103 57.342C50.7722 60.4157 49.7276 61.4403 48.7147 61.5427C46.499 61.7476 44.8213 59.9717 42.7005 58.469C39.3453 56.1125 37.4777 54.6439 34.2174 52.3216C30.4506 49.6577 32.888 48.1891 35.0404 45.7984C35.6102 45.1837 45.3278 35.621 45.5177 34.7672C45.5494 34.6647 45.5493 34.2549 45.3278 34.05C45.1062 33.8451 44.7897 33.9134 44.5364 33.9817C44.1882 34.05 38.8705 37.8751 28.5198 45.4228C27.0004 46.5498 25.6393 47.0962 24.4048 47.0621C23.0437 47.0279 20.4481 46.2424 18.4856 45.5594C16.1116 44.7397 14.2124 44.2957 14.3707 42.8613C14.4656 42.11 15.4152 41.3586 17.1878 40.5731Z" fill="white"/>
</g>
<defs>
<clipPath id="clip0_62_11">
<rect width="76" height="82" fill="white"/>
</clipPath>
</defs>
</svg>
